<svg id="svg" version="1.1" xmlns="http://www.w3.org/2000/svg" xmlns:xlink="http://www.w3.org/1999/xlink" width="400" height="241.8143160878809" viewBox="0, 0, 400,241.8143160878809"><g id="svgg"><path id="path0" d="M163.120 11.301 C 159.613 11.503,154.992 11.916,152.721 12.230 C 149.360 12.696,143.791 13.915,141.233 14.744 C 140.502 14.982,139.577 15.245,139.178 15.329 C 137.938 15.589,135.130 16.491,133.706 17.086 C 132.958 17.398,132.167 17.654,131.950 17.654 C 131.732 17.654,131.364 17.759,131.133 17.887 C 130.359 18.316,127.921 19.347,127.680 19.347 C 127.549 19.347,127.253 19.450,127.022 19.576 C 126.791 19.702,125.133 20.536,123.337 21.428 C 118.289 23.936,118.161 24.003,117.775 24.317 C 117.576 24.480,116.814 24.917,116.082 25.289 C 115.351 25.661,114.371 26.244,113.905 26.586 C 113.439 26.927,112.878 27.316,112.658 27.449 C 106.648 31.087,98.654 37.837,93.349 43.754 C 90.048 47.437,89.431 48.158,88.160 49.819 C 87.702 50.417,87.101 51.179,86.825 51.511 C 86.158 52.315,81.727 59.030,81.559 59.492 C 81.487 59.692,81.247 60.073,81.027 60.339 C 80.318 61.195,78.839 63.786,78.839 64.170 C 78.839 64.375,78.721 64.615,78.577 64.705 C 78.350 64.844,77.778 65.995,74.979 71.947 C 73.479 75.135,71.282 80.799,70.992 82.225 C 70.897 82.690,70.611 83.647,70.355 84.351 C 70.099 85.055,69.735 86.306,69.545 87.132 C 69.356 87.958,69.020 89.232,68.800 89.964 C 66.761 96.735,65.304 111.846,65.893 120.108 C 66.062 122.483,66.221 125.017,66.246 125.739 C 66.329 128.123,68.060 138.475,68.457 138.955 C 68.575 139.098,68.785 140.015,68.924 140.992 C 69.062 141.969,69.272 142.885,69.390 143.028 C 69.508 143.172,69.739 143.996,69.904 144.861 C 70.069 145.726,70.422 146.868,70.688 147.400 C 70.954 147.932,71.308 148.912,71.474 149.577 C 71.806 150.907,72.627 153.281,73.146 154.414 C 73.328 154.813,73.771 155.846,74.129 156.711 C 76.412 162.223,80.198 169.401,83.434 174.351 C 86.336 178.789,85.620 178.489,89.896 177.057 C 91.862 176.398,94.232 175.698,95.163 175.500 C 101.808 174.090,101.673 174.305,98.555 170.114 C 97.953 169.305,97.461 168.577,97.461 168.496 C 97.461 168.416,96.973 167.638,96.378 166.768 C 95.182 165.021,94.518 163.846,92.200 159.371 C 91.339 157.709,90.555 156.239,90.459 156.106 C 90.363 155.973,90.029 155.157,89.717 154.293 C 89.405 153.428,89.016 152.503,88.853 152.237 C 88.689 151.971,88.206 150.719,87.780 149.456 C 87.354 148.192,86.862 146.929,86.688 146.649 C 86.513 146.369,86.263 145.607,86.131 144.956 C 85.999 144.305,85.724 143.283,85.519 142.684 C 85.315 142.086,84.968 140.889,84.748 140.024 C 84.528 139.160,84.257 138.235,84.147 137.969 C 83.937 137.465,83.224 133.629,82.585 129.563 C 81.709 123.990,81.595 112.095,82.374 107.417 C 82.581 106.176,82.701 105.111,82.641 105.051 C 82.581 104.991,82.635 104.429,82.760 103.801 C 82.886 103.174,83.082 102.062,83.197 101.330 C 83.476 99.552,84.344 95.767,84.611 95.163 C 84.729 94.897,85.003 93.882,85.219 92.908 C 85.436 91.933,85.776 90.973,85.975 90.774 C 86.173 90.576,86.339 90.121,86.341 89.765 C 86.344 89.409,86.562 88.643,86.825 88.063 C 87.088 87.483,87.304 86.856,87.304 86.669 C 87.304 86.482,87.409 86.141,87.537 85.910 C 87.666 85.679,88.063 84.728,88.420 83.797 C 89.531 80.896,92.544 74.602,93.223 73.761 C 93.384 73.561,93.694 72.940,93.911 72.380 C 94.128 71.820,94.700 70.844,95.183 70.211 C 95.666 69.578,96.155 68.839,96.270 68.569 C 96.384 68.299,96.804 67.642,97.202 67.110 C 97.600 66.578,98.086 65.791,98.283 65.362 C 98.480 64.933,99.078 64.139,99.613 63.599 C 100.148 63.059,100.889 62.193,101.260 61.674 C 103.374 58.716,109.010 52.721,111.608 50.666 C 112.273 50.140,113.525 49.102,114.389 48.358 C 115.254 47.615,116.342 46.747,116.808 46.429 C 117.273 46.112,117.709 45.788,117.775 45.710 C 117.842 45.632,118.440 45.224,119.105 44.802 C 119.770 44.381,120.583 43.841,120.911 43.602 C 121.239 43.363,122.055 42.855,122.724 42.472 C 124.555 41.426,125.061 41.134,126.119 40.513 C 126.651 40.200,127.576 39.718,128.174 39.443 C 128.773 39.167,129.426 38.830,129.625 38.695 C 130.307 38.232,132.298 37.395,136.638 35.748 C 141.219 34.010,142.537 33.576,144.619 33.119 C 148.566 32.252,149.424 32.035,149.601 31.858 C 149.698 31.761,150.277 31.678,150.887 31.676 C 151.496 31.673,152.975 31.510,154.172 31.314 C 163.388 29.805,176.189 30.259,185.490 32.425 C 186.753 32.719,188.351 33.082,189.040 33.231 C 189.730 33.380,190.374 33.582,190.471 33.680 C 190.569 33.777,190.875 33.857,191.152 33.857 C 191.429 33.857,193.288 34.410,195.283 35.085 C 199.429 36.487,199.119 36.365,202.241 37.829 C 203.540 38.438,204.743 38.936,204.913 38.936 C 205.084 38.936,205.327 39.036,205.453 39.158 C 205.580 39.279,206.663 39.882,207.860 40.498 C 209.057 41.113,210.526 41.936,211.125 42.328 C 211.723 42.719,212.376 43.115,212.576 43.208 C 212.775 43.301,213.210 43.558,213.543 43.779 C 213.875 44.000,214.637 44.497,215.236 44.883 C 215.834 45.269,216.378 45.650,216.445 45.730 C 216.511 45.809,216.854 46.027,217.206 46.214 C 220.107 47.754,228.812 55.684,232.443 60.097 C 233.100 60.895,233.908 61.874,234.237 62.273 C 236.634 65.173,239.518 69.354,241.328 72.552 C 242.634 74.858,245.224 80.209,245.224 80.600 C 245.224 80.806,245.318 81.012,245.433 81.056 C 245.692 81.156,247.946 86.853,248.622 89.117 C 248.781 89.649,248.997 90.259,249.103 90.472 C 249.208 90.686,249.371 91.371,249.465 91.996 C 249.559 92.620,249.801 93.297,250.003 93.499 C 250.205 93.701,250.410 94.397,250.458 95.045 C 250.506 95.693,250.666 96.529,250.813 96.902 C 250.960 97.276,251.168 98.289,251.275 99.154 C 251.382 100.018,251.635 101.759,251.837 103.023 C 253.343 112.423,253.318 121.823,251.766 129.988 C 250.350 137.436,247.036 146.587,243.796 151.996 C 243.318 152.794,242.709 153.862,242.443 154.368 C 242.177 154.873,241.575 155.798,241.106 156.422 C 240.636 157.047,239.993 157.993,239.676 158.525 C 239.360 159.057,238.825 159.792,238.488 160.159 C 237.563 161.165,238.043 161.449,239.815 160.945 C 243.179 159.990,243.721 159.855,244.203 159.855 C 244.483 159.855,244.771 159.758,244.844 159.640 C 244.918 159.521,245.332 159.367,245.766 159.297 C 247.034 159.092,248.933 158.635,249.456 158.408 C 249.722 158.293,250.212 158.140,250.544 158.069 C 250.877 157.997,252.346 157.656,253.809 157.310 C 255.272 156.965,256.878 156.623,257.378 156.550 C 257.877 156.477,258.346 156.321,258.420 156.202 C 258.493 156.083,258.787 155.985,259.072 155.985 C 261.858 155.985,264.632 154.634,265.276 152.962 C 265.533 152.297,266.275 150.393,266.925 148.730 C 267.575 147.068,268.255 145.163,268.436 144.498 C 268.617 143.833,268.973 142.799,269.227 142.201 C 270.015 140.340,271.497 133.602,272.178 128.779 C 273.170 121.760,273.358 116.205,272.929 106.590 C 272.817 104.074,271.650 95.840,270.950 92.626 C 270.761 91.761,270.540 90.726,270.457 90.326 C 270.374 89.927,270.219 89.488,270.112 89.350 C 270.005 89.212,269.800 88.366,269.657 87.471 C 269.514 86.576,269.181 85.297,268.918 84.630 C 268.655 83.962,268.440 83.246,268.440 83.038 C 268.440 82.831,268.289 82.318,268.104 81.899 C 267.920 81.480,267.419 80.050,266.992 78.723 C 266.564 77.395,265.954 75.793,265.635 75.163 C 265.315 74.534,265.054 73.859,265.054 73.665 C 265.054 73.356,263.315 69.429,262.582 68.083 C 262.439 67.820,261.727 66.471,261.001 65.086 C 260.274 63.701,259.369 62.066,258.989 61.453 C 258.609 60.840,258.062 59.905,257.773 59.375 C 253.819 52.119,241.890 38.432,235.536 33.859 C 234.887 33.393,233.129 32.076,231.628 30.932 C 228.989 28.922,225.184 26.321,223.942 25.677 C 223.609 25.505,222.684 24.990,221.886 24.534 C 220.382 23.672,215.549 21.271,212.828 20.033 C 210.514 18.980,205.964 17.238,204.111 16.694 C 203.513 16.519,202.275 16.116,201.360 15.800 C 200.445 15.483,199.194 15.114,198.579 14.980 C 197.964 14.845,196.753 14.532,195.889 14.283 C 188.516 12.162,172.885 10.739,163.120 11.301 M162.273 37.261 C 161.542 37.371,159.202 37.569,157.074 37.700 C 154.777 37.842,152.774 38.092,152.146 38.317 C 151.564 38.524,150.722 38.694,150.274 38.694 C 149.827 38.694,148.889 38.912,148.189 39.178 C 147.489 39.444,146.707 39.661,146.450 39.661 C 145.973 39.661,145.441 39.798,143.257 40.482 C 142.574 40.696,141.737 40.871,141.397 40.871 C 141.056 40.871,140.723 40.960,140.655 41.069 C 140.588 41.179,139.738 41.568,138.767 41.934 C 137.196 42.526,131.293 45.171,130.351 45.706 C 130.151 45.819,129.335 46.257,128.537 46.680 C 127.739 47.103,126.208 48.037,125.134 48.755 C 124.061 49.473,123.114 50.060,123.029 50.060 C 122.945 50.060,122.613 50.305,122.291 50.605 C 121.969 50.904,121.305 51.421,120.815 51.753 C 117.607 53.930,110.783 60.136,108.394 63.049 C 108.089 63.420,107.016 64.702,106.009 65.897 C 105.001 67.091,104.084 68.316,103.969 68.617 C 103.854 68.919,103.651 69.166,103.518 69.166 C 103.384 69.166,103.050 69.574,102.776 70.073 C 102.225 71.075,101.409 72.296,100.559 73.387 C 99.936 74.187,98.539 76.597,97.119 79.323 C 96.600 80.320,95.974 81.396,95.729 81.713 C 95.485 82.031,95.284 82.419,95.284 82.577 C 95.284 82.735,94.959 83.536,94.561 84.357 C 93.537 86.472,91.494 92.158,90.592 95.405 C 90.370 96.203,90.036 97.346,89.849 97.944 C 87.405 105.758,87.042 123.379,89.137 132.527 C 89.335 133.392,89.555 134.371,89.627 134.704 C 89.699 135.036,89.847 135.526,89.956 135.792 C 90.065 136.058,90.339 137.201,90.565 138.331 C 90.792 139.462,91.062 140.496,91.165 140.629 C 91.267 140.762,91.428 141.306,91.522 141.838 C 91.616 142.370,91.839 143.033,92.018 143.311 C 92.196 143.589,92.471 144.296,92.629 144.883 C 92.786 145.469,93.216 146.602,93.583 147.400 C 93.950 148.198,94.326 149.178,94.419 149.577 C 94.511 149.976,95.675 152.479,97.005 155.139 C 99.418 159.964,99.595 160.299,100.468 161.669 C 100.723 162.068,101.277 162.938,101.701 163.603 C 102.124 164.268,102.785 165.291,103.170 165.875 C 103.555 166.459,103.978 167.117,104.111 167.337 C 104.621 168.180,107.100 171.364,107.586 171.801 C 108.025 172.195,108.325 172.237,109.732 172.097 C 113.014 171.772,115.263 171.479,116.445 171.223 C 117.110 171.078,118.470 170.921,119.468 170.872 C 126.687 170.520,126.599 170.583,123.881 167.740 C 117.159 160.709,110.976 151.462,107.612 143.410 C 107.307 142.678,106.863 141.644,106.626 141.112 C 104.633 136.640,102.468 128.195,102.036 123.216 C 101.561 117.752,101.425 115.477,101.491 114.148 C 101.804 107.860,103.016 99.355,103.897 97.271 C 104.081 96.834,104.232 96.215,104.232 95.895 C 104.232 95.575,104.341 95.245,104.474 95.163 C 104.607 95.081,104.716 94.806,104.716 94.551 C 104.716 94.297,104.977 93.499,105.295 92.778 C 105.614 92.058,105.954 91.102,106.050 90.655 C 106.146 90.208,106.581 89.081,107.015 88.150 C 107.450 87.219,107.886 86.185,107.985 85.852 C 108.084 85.520,108.351 84.976,108.579 84.643 C 108.807 84.311,109.462 83.168,110.035 82.104 C 111.710 78.996,111.844 78.755,112.337 77.993 C 112.595 77.594,112.900 77.200,113.015 77.119 C 113.130 77.037,113.350 76.746,113.504 76.474 C 114.086 75.443,116.092 72.603,116.442 72.312 C 116.643 72.145,116.808 71.918,116.808 71.807 C 116.808 71.697,117.053 71.352,117.352 71.041 C 117.651 70.730,118.495 69.780,119.226 68.930 C 120.847 67.048,121.293 66.589,123.522 64.515 C 124.485 63.619,125.272 62.799,125.272 62.692 C 125.272 62.586,125.625 62.290,126.057 62.035 C 127.055 61.446,130.651 58.674,131.064 58.176 C 131.236 57.969,131.466 57.799,131.575 57.799 C 131.684 57.799,132.646 57.201,133.713 56.470 C 136.407 54.626,137.353 54.082,140.266 52.706 C 141.663 52.046,143.186 51.303,143.652 51.055 C 144.117 50.808,144.876 50.523,145.337 50.423 C 145.798 50.323,146.342 50.154,146.546 50.047 C 147.517 49.540,149.187 48.883,150.060 48.666 C 150.593 48.534,152.551 48.026,154.414 47.538 C 163.577 45.135,175.653 45.181,185.327 47.654 C 189.450 48.709,191.438 49.274,191.933 49.534 C 192.180 49.663,193.198 50.064,194.196 50.424 C 195.854 51.022,200.826 53.191,201.693 53.693 C 201.892 53.809,202.893 54.340,203.917 54.873 C 204.941 55.407,206.503 56.284,207.388 56.821 C 208.273 57.359,209.078 57.799,209.177 57.799 C 209.276 57.799,209.564 58.030,209.817 58.312 C 210.071 58.594,210.877 59.208,211.608 59.677 C 215.121 61.928,220.498 66.830,223.474 70.496 C 225.619 73.137,226.570 74.364,226.965 75.000 C 227.098 75.215,227.746 76.193,228.405 77.175 C 229.606 78.964,230.075 79.783,231.571 82.709 C 232.823 85.156,235.110 90.019,235.324 90.689 C 235.431 91.022,235.861 92.219,236.280 93.349 C 237.072 95.483,237.345 96.343,238.202 99.395 C 238.482 100.393,238.799 101.372,238.906 101.572 C 239.120 101.972,239.639 103.755,240.244 106.167 C 240.460 107.031,240.894 108.605,241.208 109.663 L 241.778 111.586 242.072 110.388 C 242.589 108.284,242.626 107.394,242.339 103.902 C 242.185 102.022,242.019 99.710,241.969 98.765 C 241.919 97.819,241.699 96.296,241.481 95.379 C 241.263 94.462,240.966 93.168,240.822 92.503 C 240.677 91.838,240.344 90.532,240.082 89.601 C 239.819 88.670,239.456 87.341,239.276 86.648 C 239.095 85.955,238.727 84.977,238.458 84.475 C 238.189 83.973,237.969 83.438,237.969 83.286 C 237.969 82.369,234.224 75.042,232.212 72.023 C 231.321 70.686,230.461 69.361,230.301 69.077 C 229.972 68.493,229.821 68.297,227.772 65.780 C 223.912 61.039,217.146 54.746,213.059 52.097 C 212.461 51.709,211.841 51.269,211.682 51.120 C 211.256 50.719,207.826 48.671,205.135 47.212 C 203.112 46.115,201.371 45.252,197.944 43.645 C 195.869 42.672,189.253 40.424,186.699 39.825 C 181.605 38.629,177.122 37.821,174.486 37.624 C 173.555 37.554,171.814 37.393,170.617 37.266 C 167.993 36.988,164.095 36.985,162.273 37.261 M105.668 184.612 C 105.610 184.666,103.984 184.777,102.056 184.858 C 100.127 184.939,97.842 185.112,96.977 185.243 C 96.112 185.374,94.882 185.545,94.242 185.623 C 92.031 185.894,92.479 186.889,96.798 191.297 C 103.573 198.212,110.982 204.443,115.920 207.376 C 116.776 207.885,117.726 208.495,118.754 209.196 C 119.570 209.752,121.810 210.883,122.097 210.883 C 122.221 210.883,122.727 210.257,123.220 209.492 C 123.713 208.727,124.305 207.830,124.536 207.497 C 125.137 206.629,126.596 203.875,126.906 203.023 C 128.441 198.807,128.462 198.946,126.045 197.408 C 122.486 195.145,115.183 189.190,112.086 186.027 C 111.243 185.166,110.854 184.958,109.769 184.788 C 108.333 184.564,105.834 184.456,105.668 184.612 M147.101 185.176 C 146.622 185.899,145.373 189.126,145.176 190.145 C 145.106 190.511,144.945 190.810,144.819 190.810 C 144.693 190.810,144.658 190.919,144.740 191.052 C 144.822 191.185,144.794 191.294,144.677 191.294 C 144.560 191.294,143.931 192.246,143.279 193.410 C 142.628 194.574,141.792 195.977,141.422 196.528 C 141.052 197.080,140.750 197.582,140.750 197.645 C 140.750 197.890,143.426 197.122,144.537 196.558 C 147.814 194.898,148.785 194.438,149.014 194.438 C 149.152 194.438,149.806 194.166,150.467 193.834 C 151.129 193.502,152.450 192.915,153.404 192.531 C 154.358 192.146,156.064 191.401,157.195 190.875 C 158.325 190.348,159.558 189.791,159.934 189.635 C 161.056 189.171,160.574 188.818,157.661 187.966 C 152.678 186.508,151.533 186.130,148.793 185.037 L 147.526 184.531 147.101 185.176 " stroke="none" fill="#f9c90c" fill-rule="evenodd"></path><path id="path1" d="M311.729 148.282 C 310.599 148.383,307.225 148.639,304.232 148.850 C 301.239 149.062,298.083 149.336,297.219 149.458 C 296.354 149.581,294.776 149.800,293.712 149.946 C 292.648 150.091,291.125 150.306,290.326 150.424 C 289.528 150.542,287.842 150.762,286.578 150.913 C 284.466 151.165,282.293 151.512,278.839 152.146 C 278.108 152.280,276.638 152.535,275.574 152.711 C 274.510 152.887,272.660 153.251,271.463 153.520 C 270.266 153.788,268.362 154.185,267.231 154.402 C 266.100 154.619,264.958 154.839,264.692 154.890 C 264.426 154.941,263.392 155.167,262.394 155.392 C 261.397 155.617,260.145 155.891,259.613 156.001 C 259.081 156.111,258.210 156.312,257.678 156.447 C 257.146 156.582,255.786 156.911,254.655 157.177 C 253.525 157.443,251.729 157.894,250.665 158.178 C 249.601 158.463,248.349 158.786,247.884 158.896 C 247.418 159.007,246.657 159.201,246.191 159.328 C 245.726 159.455,243.603 160.012,241.475 160.566 C 239.347 161.120,237.062 161.777,236.397 162.026 C 235.732 162.275,234.317 162.718,233.253 163.011 C 232.189 163.304,230.883 163.677,230.351 163.841 C 229.819 164.004,228.894 164.279,228.295 164.451 C 227.696 164.624,226.445 165.007,225.514 165.302 C 224.583 165.598,222.352 166.307,220.556 166.877 C 218.761 167.448,214.788 168.766,211.729 169.806 C 208.670 170.846,205.459 171.932,204.595 172.221 C 203.730 172.509,202.696 172.883,202.297 173.051 C 201.898 173.220,200.548 173.694,199.297 174.105 C 198.046 174.517,196.903 174.938,196.758 175.042 C 196.612 175.146,196.058 175.375,195.526 175.549 C 192.557 176.524,176.466 182.760,172.068 184.641 C 169.755 185.629,162.434 188.674,161.306 189.116 C 160.227 189.539,156.557 191.155,148.126 194.919 C 147.860 195.038,146.717 195.566,145.586 196.094 C 140.321 198.549,139.905 198.623,141.061 196.902 C 142.049 195.432,143.410 193.228,143.410 193.098 C 143.410 193.032,143.688 192.537,144.027 192.000 C 146.426 188.200,147.577 182.035,146.518 178.664 C 144.297 171.596,132.519 169.015,114.268 171.597 C 111.725 171.957,107.269 172.710,107.114 172.806 C 107.017 172.865,105.541 173.183,103.832 173.511 C 102.124 173.839,100.345 174.212,99.879 174.338 C 98.493 174.715,96.259 175.288,94.140 175.810 C 87.582 177.426,67.230 184.839,60.459 188.079 C 28.898 203.179,23.233 216.042,45.579 221.865 C 49.237 222.818,51.071 223.189,52.842 223.334 L 54.534 223.472 52.721 222.979 C 34.809 218.112,33.067 210.907,47.521 201.469 C 53.291 197.702,67.344 191.810,75.816 189.606 C 76.880 189.330,78.295 188.945,78.960 188.751 C 79.977 188.456,84.979 187.244,87.062 186.789 C 88.087 186.565,90.245 186.195,92.019 185.939 C 92.950 185.805,94.365 185.599,95.163 185.481 C 109.688 183.335,120.285 184.577,125.495 189.036 C 132.777 195.269,127.350 207.817,109.590 225.816 C 107.719 227.712,106.243 229.262,106.309 229.262 C 106.374 229.262,106.723 229.058,107.084 228.809 C 107.808 228.307,116.315 223.438,117.984 222.570 C 118.564 222.268,119.163 221.924,119.314 221.806 C 119.465 221.688,120.459 221.124,121.524 220.554 C 124.845 218.772,126.558 217.847,127.836 217.147 C 129.290 216.350,142.073 209.962,143.652 209.243 C 144.250 208.971,145.828 208.239,147.158 207.618 C 148.489 206.996,152.025 205.401,155.018 204.074 C 158.011 202.747,160.786 201.515,161.185 201.337 C 161.584 201.159,162.618 200.721,163.482 200.363 C 164.347 200.005,165.381 199.570,165.780 199.397 C 166.179 199.224,167.376 198.734,168.440 198.307 C 169.504 197.881,170.701 197.392,171.100 197.221 C 171.499 197.050,172.751 196.556,173.881 196.123 C 175.012 195.690,176.264 195.197,176.663 195.029 C 177.062 194.860,177.987 194.507,178.718 194.244 C 179.450 193.982,181.245 193.312,182.709 192.756 C 184.172 192.200,186.892 191.201,188.755 190.536 C 190.617 189.872,192.848 189.072,193.712 188.760 C 194.577 188.447,195.719 188.066,196.252 187.912 C 196.784 187.758,197.437 187.537,197.703 187.419 C 198.288 187.161,205.174 184.933,209.674 183.546 C 211.469 182.992,213.755 182.287,214.752 181.979 C 215.750 181.672,216.838 181.365,217.170 181.298 C 217.503 181.232,219.299 180.726,221.161 180.174 C 224.800 179.096,239.260 175.387,242.443 174.715 C 243.507 174.491,244.758 174.222,245.224 174.118 C 248.025 173.494,255.012 172.087,257.799 171.587 C 259.595 171.265,261.663 170.884,262.394 170.741 C 263.504 170.524,266.348 170.090,271.100 169.411 C 273.630 169.050,279.959 168.328,281.741 168.197 C 282.872 168.114,284.667 167.950,285.732 167.833 C 290.665 167.289,306.430 167.099,307.946 167.565 C 308.364 167.694,309.577 167.868,310.641 167.954 C 313.003 168.143,318.142 168.984,318.699 169.272 C 318.922 169.388,319.694 169.604,320.413 169.752 C 321.789 170.035,325.863 171.582,326.481 172.055 C 326.681 172.208,327.266 172.546,327.781 172.805 C 332.382 175.120,334.968 180.534,333.900 185.611 C 333.475 187.631,332.740 190.158,332.529 190.326 C 332.377 190.448,330.555 193.622,330.377 194.075 C 330.175 194.589,328.518 197.033,327.590 198.186 C 325.918 200.265,322.062 204.683,321.257 205.441 C 320.833 205.840,318.925 207.649,317.015 209.461 C 313.458 212.837,309.887 215.967,307.394 217.896 C 306.620 218.495,305.170 219.637,304.171 220.435 C 303.173 221.233,300.422 223.301,298.058 225.030 C 295.695 226.759,292.853 228.854,291.744 229.686 C 290.634 230.517,289.670 231.197,289.600 231.197 C 289.531 231.197,288.850 231.617,288.087 232.131 C 287.323 232.644,286.481 233.185,286.215 233.333 C 285.156 233.920,286.487 233.579,287.946 232.890 C 288.790 232.491,289.529 232.164,289.587 232.164 C 289.691 232.164,291.509 231.330,295.889 229.273 C 300.793 226.970,312.100 221.213,315.719 219.177 C 317.848 217.980,320.133 216.701,320.798 216.334 C 322.161 215.583,324.487 214.211,325.756 213.409 C 326.221 213.115,327.406 212.399,328.388 211.818 C 331.197 210.157,334.035 208.247,334.180 207.920 C 334.224 207.820,334.366 207.739,334.495 207.739 C 334.712 207.739,337.572 205.897,337.848 205.580 C 337.914 205.504,338.772 204.897,339.755 204.232 C 342.516 202.363,344.330 201.048,344.619 200.706 C 344.686 200.627,345.883 199.655,347.279 198.546 C 351.706 195.030,355.849 191.000,360.084 186.094 C 363.212 182.470,367.043 175.369,366.704 173.823 C 366.620 173.441,366.652 173.372,366.810 173.594 C 366.963 173.809,367.137 173.206,367.349 171.722 C 369.465 156.962,352.639 148.254,321.765 148.130 C 317.376 148.112,312.860 148.181,311.729 148.282 " stroke="none" fill="#0a8dc0" fill-rule="evenodd"></path><path id="path2" d="M0.000 120.919 L 0.000 241.838 200.000 241.838 L 400.000 241.838 400.000 120.919 L 400.000 0.000 200.000 0.000 L 0.000 0.000 0.000 120.919 M182.830 11.328 C 192.768 12.624,203.356 15.360,210.687 18.526 C 211.792 19.003,213.222 19.595,213.864 19.840 C 214.506 20.086,215.159 20.383,215.315 20.501 C 215.471 20.619,216.193 20.965,216.919 21.269 C 218.048 21.742,219.678 22.624,224.716 25.489 C 225.208 25.769,226.405 26.551,227.376 27.228 C 228.347 27.905,229.901 28.979,230.829 29.614 C 236.796 33.695,244.621 40.904,249.514 46.829 C 259.053 58.377,266.088 72.024,270.006 86.578 C 270.239 87.443,270.523 88.422,270.638 88.755 C 270.752 89.087,271.180 91.481,271.588 94.075 C 271.997 96.669,272.485 99.770,272.674 100.967 C 274.486 112.460,273.651 127.254,270.524 139.057 C 269.234 143.927,268.818 145.309,268.290 146.485 C 268.098 146.913,267.566 148.300,267.108 149.567 C 266.649 150.834,265.992 152.426,265.648 153.106 C 264.871 154.639,264.777 154.584,267.232 154.047 C 269.929 153.457,276.428 152.224,279.323 151.753 C 280.586 151.547,282.164 151.278,282.830 151.155 C 285.681 150.627,288.936 150.139,291.122 149.911 C 292.414 149.776,294.178 149.567,295.042 149.447 C 295.907 149.327,297.104 149.170,297.703 149.098 C 298.301 149.026,299.716 148.856,300.846 148.721 C 310.725 147.539,329.808 147.476,337.122 148.601 C 338.386 148.795,340.127 149.060,340.992 149.189 C 343.168 149.514,345.949 150.093,347.461 150.535 C 348.159 150.740,349.247 151.058,349.879 151.242 C 353.678 152.351,358.656 154.654,360.365 156.091 C 360.770 156.432,361.183 156.711,361.284 156.711 C 361.646 156.711,364.731 160.029,365.635 161.391 C 367.800 164.651,368.544 169.287,367.484 172.914 C 367.309 173.513,366.977 174.655,366.748 175.453 C 366.345 176.853,363.340 182.594,362.542 183.489 C 362.328 183.729,361.857 184.359,361.495 184.889 C 359.655 187.586,354.298 193.082,349.679 197.012 C 348.958 197.626,347.789 198.626,347.082 199.234 C 346.374 199.843,345.545 200.509,345.238 200.715 C 344.932 200.920,343.443 202.017,341.929 203.152 C 337.241 206.667,332.042 210.120,327.157 212.962 C 326.265 213.481,323.871 214.894,321.837 216.103 C 317.440 218.714,313.525 220.839,307.013 224.148 C 302.934 226.220,295.154 230.018,293.712 230.640 C 292.245 231.274,288.382 232.980,286.631 233.767 C 283.991 234.954,284.658 233.997,288.089 231.675 C 289.719 230.572,292.125 228.898,293.436 227.955 C 294.747 227.011,296.060 226.076,296.356 225.877 C 297.465 225.126,301.485 222.121,302.326 221.414 C 302.807 221.009,303.560 220.405,303.998 220.073 C 320.406 207.632,332.143 194.017,333.500 185.852 C 335.030 176.644,329.121 171.405,314.148 168.696 C 308.164 167.613,293.311 167.342,285.732 168.178 C 285.067 168.251,283.815 168.371,282.950 168.443 C 278.550 168.812,273.146 169.435,269.528 169.992 C 268.597 170.135,267.455 170.309,266.989 170.379 C 266.524 170.448,265.381 170.619,264.450 170.759 C 262.165 171.101,257.674 171.902,256.405 172.193 C 255.838 172.324,255.138 172.430,254.850 172.430 C 254.563 172.430,253.993 172.531,253.584 172.654 C 253.176 172.777,252.270 172.994,251.572 173.137 C 250.874 173.281,249.785 173.504,249.154 173.634 C 248.522 173.764,247.189 174.028,246.191 174.220 C 245.193 174.412,243.724 174.735,242.926 174.937 C 242.128 175.138,240.768 175.468,239.903 175.670 C 233.942 177.058,230.916 177.794,229.867 178.111 C 229.202 178.312,227.787 178.700,226.723 178.973 C 224.882 179.444,223.460 179.843,218.501 181.279 C 217.304 181.625,215.617 182.111,214.752 182.357 C 211.295 183.342,208.236 184.268,206.167 184.954 C 204.970 185.352,202.630 186.120,200.967 186.662 C 196.814 188.016,189.183 190.659,188.129 191.108 C 187.652 191.312,186.999 191.557,186.678 191.653 C 185.993 191.858,179.949 194.056,178.718 194.547 C 178.253 194.732,176.566 195.392,174.970 196.013 C 173.374 196.634,170.435 197.824,168.440 198.657 C 166.445 199.491,164.377 200.312,163.845 200.481 C 163.313 200.650,162.769 200.872,162.636 200.975 C 162.503 201.077,161.741 201.433,160.943 201.765 C 156.727 203.521,148.327 207.324,143.904 209.480 C 138.614 212.059,129.571 216.582,128.053 217.407 C 126.856 218.058,125.516 218.781,121.765 220.798 C 119.805 221.852,114.164 225.060,111.729 226.505 C 110.998 226.939,109.637 227.740,108.706 228.284 C 107.775 228.829,106.770 229.447,106.472 229.659 C 105.976 230.011,105.918 230.010,105.779 229.647 C 105.669 229.359,106.582 228.299,109.101 225.788 C 113.908 220.999,118.289 216.061,120.755 212.653 L 121.661 211.399 120.021 210.486 C 118.219 209.483,114.075 206.732,113.286 206.016 C 113.011 205.766,112.712 205.562,112.622 205.562 C 112.379 205.562,107.822 202.101,105.320 200.016 C 102.922 198.017,94.613 189.815,92.721 187.580 L 91.523 186.163 90.562 186.414 C 90.033 186.552,89.002 186.782,88.271 186.924 C 84.285 187.702,80.369 188.594,78.235 189.209 C 77.570 189.401,76.021 189.840,74.793 190.184 C 71.570 191.087,64.321 193.609,61.306 194.877 C 45.419 201.555,36.915 208.662,38.385 214.033 C 39.126 216.738,42.761 219.496,47.763 221.148 C 48.827 221.499,49.887 221.891,50.118 222.018 C 50.349 222.145,50.745 222.249,50.998 222.249 C 51.251 222.249,52.477 222.529,53.722 222.871 C 54.967 223.214,56.289 223.553,56.661 223.626 C 57.033 223.699,57.293 223.881,57.240 224.031 C 57.126 224.352,54.958 224.293,54.554 223.959 C 54.408 223.837,53.582 223.666,52.718 223.580 C 45.431 222.849,36.943 219.748,34.064 216.763 C 28.837 211.346,33.369 203.284,45.988 195.554 C 46.831 195.038,47.902 194.369,48.368 194.068 C 51.003 192.361,60.588 187.498,63.066 186.610 C 64.034 186.263,65.143 185.815,65.530 185.615 C 65.918 185.414,66.921 184.988,67.761 184.667 C 68.600 184.347,70.484 183.626,71.947 183.066 C 75.513 181.700,78.697 180.550,81.620 179.573 C 82.950 179.128,84.336 178.648,84.699 178.507 L 85.359 178.250 84.578 177.029 C 82.619 173.964,82.312 173.475,80.355 170.287 C 78.085 166.592,72.793 155.704,72.793 154.730 C 72.793 154.549,72.470 153.751,72.075 152.956 C 71.680 152.162,71.354 151.337,71.350 151.124 C 71.346 150.911,71.065 149.985,70.727 149.068 C 69.133 144.750,67.668 138.624,66.770 132.527 C 65.270 122.339,65.188 121.389,65.226 114.631 C 65.299 101.845,67.863 87.846,72.040 77.429 C 72.289 76.808,72.795 75.538,73.163 74.607 C 73.937 72.655,76.078 67.823,76.487 67.110 C 76.846 66.483,79.263 62.005,79.751 61.064 C 79.957 60.665,80.417 59.958,80.773 59.492 C 81.128 59.027,81.483 58.469,81.561 58.253 C 81.862 57.418,86.037 51.488,88.351 48.609 C 96.846 38.038,107.851 28.736,118.699 22.958 C 119.454 22.556,120.345 22.075,120.677 21.890 C 121.010 21.705,121.989 21.231,122.854 20.837 C 123.718 20.443,125.242 19.740,126.239 19.276 C 128.897 18.039,129.836 17.649,131.318 17.169 C 132.050 16.932,133.573 16.412,134.704 16.014 C 141.295 13.691,149.631 11.894,157.437 11.113 C 158.966 10.960,160.272 10.782,160.339 10.717 C 160.728 10.337,179.049 10.835,182.830 11.328 M159.613 31.196 C 156.426 31.407,151.956 32.008,150.767 32.384 C 150.378 32.507,148.972 32.846,147.642 33.137 C 142.539 34.252,138.194 35.609,134.825 37.139 C 133.894 37.561,132.860 37.990,132.527 38.091 C 131.796 38.315,126.844 40.791,125.998 41.357 C 125.665 41.580,124.794 42.075,124.063 42.458 C 123.331 42.841,121.929 43.701,120.946 44.370 C 119.963 45.039,118.593 45.967,117.901 46.433 C 116.614 47.300,113.927 49.425,112.642 50.593 C 112.247 50.953,111.163 51.932,110.233 52.770 C 108.305 54.508,104.263 58.854,102.297 61.303 C 101.566 62.215,100.804 63.133,100.605 63.344 C 100.182 63.791,97.550 67.615,96.884 68.751 C 96.633 69.179,96.056 70.107,95.601 70.814 C 91.356 77.414,86.556 89.066,84.872 96.856 C 84.584 98.186,84.262 99.492,84.155 99.758 C 83.917 100.350,83.340 104.175,82.806 108.706 C 81.436 120.318,83.082 134.568,87.136 146.191 C 88.378 149.751,88.722 150.626,89.333 151.774 C 89.680 152.426,89.964 153.113,89.964 153.302 C 89.964 154.598,96.487 166.355,99.637 170.737 C 100.502 171.939,101.318 173.075,101.451 173.261 C 101.641 173.527,101.951 173.552,102.902 173.377 C 103.567 173.256,104.687 173.065,105.390 172.953 C 107.072 172.687,107.286 172.444,106.597 171.581 C 106.041 170.885,104.473 168.658,102.341 165.538 C 101.705 164.607,100.814 163.192,100.361 162.394 C 99.907 161.596,99.282 160.567,98.971 160.107 C 96.956 157.126,91.704 144.955,90.671 140.871 C 90.570 140.472,90.151 138.839,89.740 137.243 C 86.763 125.693,86.374 112.526,88.665 100.846 C 89.270 97.764,89.467 96.995,90.749 92.745 C 92.539 86.809,95.773 79.909,99.596 73.875 C 101.336 71.128,102.583 69.319,103.344 68.437 C 103.633 68.103,104.171 67.386,104.540 66.844 C 108.103 61.610,116.549 53.630,123.004 49.400 C 126.023 47.421,127.257 46.656,128.174 46.193 C 128.773 45.891,129.534 45.457,129.867 45.229 C 130.597 44.727,135.250 42.668,138.089 41.590 C 139.220 41.161,140.472 40.673,140.871 40.506 C 141.870 40.088,142.826 39.829,146.191 39.066 C 147.787 38.704,149.964 38.206,151.028 37.959 C 171.177 33.291,195.829 39.042,215.261 52.945 C 219.913 56.273,229.122 65.828,231.527 69.821 C 232.287 71.083,232.843 71.973,233.583 73.112 C 235.912 76.700,238.819 83.296,240.156 88.029 C 240.438 89.027,240.811 90.278,240.986 90.810 C 242.608 95.755,243.510 114.409,242.125 114.387 C 241.912 114.383,240.885 110.946,239.670 106.167 C 238.685 102.294,235.775 93.012,235.201 91.916 C 235.023 91.574,234.572 90.478,234.201 89.480 C 233.495 87.583,229.779 80.104,228.763 78.534 C 228.244 77.733,226.664 75.535,224.126 72.084 C 223.300 70.961,217.662 65.173,216.203 63.949 C 215.738 63.559,214.758 62.741,214.027 62.132 C 212.296 60.692,206.668 56.999,204.354 55.787 C 200.675 53.859,196.937 52.020,196.003 51.678 C 186.058 48.031,182.006 47.070,173.781 46.411 C 164.371 45.657,151.515 47.930,143.773 51.716 C 143.241 51.977,141.771 52.678,140.508 53.276 C 139.244 53.873,137.836 54.645,137.377 54.992 C 136.919 55.339,136.361 55.623,136.137 55.623 C 135.914 55.623,135.588 55.794,135.415 56.003 C 135.241 56.212,134.711 56.585,134.236 56.831 C 133.762 57.077,133.156 57.451,132.890 57.662 C 131.349 58.885,128.174 61.277,127.449 61.761 C 125.443 63.099,118.384 70.567,115.954 73.919 C 115.198 74.963,114.377 76.088,114.131 76.421 C 111.145 80.448,107.583 87.802,105.438 94.365 C 103.811 99.343,103.435 101.078,102.412 108.326 C 102.000 111.240,101.936 118.644,102.300 121.235 C 102.434 122.192,102.658 123.791,102.797 124.788 C 103.255 128.069,103.791 130.678,104.512 133.132 C 105.512 136.531,106.403 139.295,106.775 140.145 C 106.949 140.544,107.387 141.578,107.748 142.443 C 109.165 145.841,111.154 149.689,113.393 153.364 C 113.608 153.718,114.102 154.534,114.491 155.178 C 115.328 156.567,119.311 161.895,120.518 163.241 C 120.697 163.440,121.604 164.474,122.534 165.538 C 123.465 166.602,124.834 168.086,125.578 168.835 L 126.930 170.198 130.152 170.371 C 131.924 170.467,133.863 170.649,134.462 170.775 C 135.060 170.902,136.055 171.100,136.671 171.215 C 143.356 172.467,147.158 176.188,147.158 181.479 L 147.158 183.880 149.087 184.580 C 150.148 184.965,151.137 185.380,151.286 185.503 C 151.565 185.735,155.642 187.007,159.008 187.913 C 160.073 188.200,161.141 188.494,161.382 188.566 C 161.624 188.639,162.059 188.578,162.350 188.432 C 163.374 187.915,169.139 185.466,172.758 184.011 C 174.773 183.200,176.802 182.366,177.267 182.157 C 177.733 181.948,178.767 181.536,179.565 181.241 C 180.363 180.946,183.029 179.922,185.490 178.965 C 187.950 178.008,190.998 176.844,192.261 176.378 C 193.525 175.913,194.776 175.432,195.042 175.310 C 195.308 175.189,196.288 174.824,197.219 174.500 C 198.150 174.176,200.000 173.519,201.330 173.040 C 202.660 172.561,204.728 171.840,205.925 171.438 C 207.122 171.037,208.319 170.608,208.585 170.485 C 209.776 169.936,227.687 164.233,233.253 162.632 C 236.146 161.799,237.074 161.418,237.338 160.956 C 237.485 160.697,237.858 160.207,238.166 159.868 C 238.474 159.528,238.895 158.924,239.101 158.525 C 239.307 158.126,239.670 157.582,239.907 157.316 C 242.373 154.550,246.808 145.522,248.988 138.830 C 252.212 128.934,253.393 115.308,251.881 105.441 C 251.277 101.497,250.839 99.086,250.453 97.582 C 250.248 96.784,249.847 95.209,249.561 94.083 C 247.795 87.128,243.387 76.636,240.107 71.584 C 239.545 70.719,238.399 68.955,237.560 67.663 C 236.720 66.372,235.828 65.120,235.578 64.882 C 235.327 64.644,234.918 64.109,234.668 63.693 C 231.822 58.959,221.319 49.286,214.303 44.938 C 213.590 44.497,212.752 43.972,212.439 43.773 C 211.046 42.883,207.480 40.903,206.046 40.222 C 202.312 38.450,201.055 37.888,199.898 37.473 C 198.772 37.069,196.216 36.060,195.042 35.557 C 194.776 35.443,194.069 35.219,193.470 35.060 C 187.408 33.445,185.766 33.036,183.676 32.618 C 176.715 31.228,167.411 30.678,159.613 31.196 M90.206 146.844 C 90.206 147.407,90.133 147.545,89.940 147.352 C 89.793 147.206,89.746 146.858,89.835 146.578 C 90.066 145.851,90.206 145.951,90.206 146.844 M34.825 148.717 C 34.825 148.960,33.875 149.698,33.562 149.698 C 33.332 149.698,33.311 148.874,33.535 148.650 C 33.781 148.404,34.825 148.458,34.825 148.717 M111.928 185.168 C 112.063 185.420,112.969 186.330,113.940 187.190 C 114.912 188.051,115.878 188.918,116.087 189.117 C 120.295 193.132,128.033 198.622,128.265 197.757 C 129.012 194.972,127.751 191.401,125.514 189.961 C 125.048 189.661,124.065 188.885,123.328 188.235 C 121.391 186.528,118.717 185.680,112.613 184.837 C 111.758 184.719,111.702 184.746,111.928 185.168 " stroke="none" fill="none" fill-rule="evenodd"></path><path id="path3" d="M160.339 10.717 C 160.272 10.782,158.966 10.960,157.437 11.113 C 149.631 11.894,141.295 13.691,134.704 16.014 C 133.573 16.412,132.050 16.932,131.318 17.169 C 129.836 17.649,128.897 18.039,126.239 19.276 C 125.242 19.740,123.718 20.443,122.854 20.837 C 121.989 21.231,121.010 21.705,120.677 21.890 C 120.345 22.075,119.454 22.556,118.699 22.958 C 107.851 28.736,96.846 38.038,88.351 48.609 C 86.037 51.488,81.862 57.418,81.561 58.253 C 81.483 58.469,81.128 59.027,80.773 59.492 C 80.417 59.958,79.957 60.665,79.751 61.064 C 79.263 62.005,76.846 66.483,76.487 67.110 C 76.078 67.823,73.937 72.655,73.163 74.607 C 72.795 75.538,72.289 76.808,72.040 77.429 C 67.863 87.846,65.299 101.845,65.226 114.631 C 65.188 121.389,65.270 122.339,66.770 132.527 C 67.668 138.624,69.133 144.750,70.727 149.068 C 71.065 149.985,71.346 150.911,71.350 151.124 C 71.354 151.337,71.680 152.162,72.075 152.956 C 72.470 153.751,72.793 154.549,72.793 154.730 C 72.793 155.463,76.810 164.001,78.960 167.836 C 80.699 170.938,80.936 171.335,82.581 173.881 C 84.399 176.697,85.242 178.106,85.196 178.256 C 85.167 178.350,85.343 178.375,85.587 178.311 C 85.979 178.208,85.915 178.026,85.035 176.745 C 80.940 170.788,76.837 163.250,74.129 156.711 C 73.771 155.846,73.328 154.813,73.146 154.414 C 72.627 153.281,71.806 150.907,71.474 149.577 C 71.308 148.912,70.954 147.932,70.688 147.400 C 70.422 146.868,70.069 145.726,69.904 144.861 C 69.739 143.996,69.508 143.172,69.390 143.028 C 69.272 142.885,69.062 141.969,68.924 140.992 C 68.785 140.015,68.575 139.098,68.457 138.955 C 68.060 138.475,66.329 128.123,66.246 125.739 C 66.221 125.017,66.062 122.483,65.893 120.108 C 65.304 111.846,66.761 96.735,68.800 89.964 C 69.020 89.232,69.356 87.958,69.545 87.132 C 69.735 86.306,70.099 85.055,70.355 84.351 C 70.611 83.647,70.897 82.690,70.992 82.225 C 71.282 80.799,73.479 75.135,74.979 71.947 C 77.778 65.995,78.350 64.844,78.577 64.705 C 78.721 64.615,78.839 64.375,78.839 64.170 C 78.839 63.786,80.318 61.195,81.027 60.339 C 81.247 60.073,81.487 59.692,81.559 59.492 C 81.727 59.030,86.158 52.315,86.825 51.511 C 87.101 51.179,87.702 50.417,88.160 49.819 C 89.431 48.158,90.048 47.437,93.349 43.754 C 98.654 37.837,106.648 31.087,112.658 27.449 C 112.878 27.316,113.439 26.927,113.905 26.586 C 114.371 26.244,115.351 25.661,116.082 25.289 C 116.814 24.917,117.576 24.480,117.775 24.317 C 118.161 24.003,118.289 23.936,123.337 21.428 C 125.133 20.536,126.791 19.702,127.022 19.576 C 127.253 19.450,127.549 19.347,127.680 19.347 C 127.921 19.347,130.359 18.316,131.133 17.887 C 131.364 17.759,131.732 17.654,131.950 17.654 C 132.167 17.654,132.958 17.398,133.706 17.086 C 135.130 16.491,137.938 15.589,139.178 15.329 C 139.577 15.245,140.502 14.982,141.233 14.744 C 143.878 13.886,149.432 12.679,152.842 12.222 C 163.850 10.744,176.202 10.874,186.941 12.582 C 192.070 13.397,194.255 13.813,195.889 14.283 C 196.753 14.532,197.964 14.845,198.579 14.980 C 199.194 15.114,200.445 15.483,201.360 15.800 C 202.275 16.116,203.513 16.519,204.111 16.694 C 205.964 17.238,210.514 18.980,212.828 20.033 C 215.549 21.271,220.382 23.672,221.886 24.534 C 222.684 24.990,223.609 25.505,223.942 25.677 C 225.184 26.321,228.989 28.922,231.628 30.932 C 233.129 32.076,234.887 33.393,235.536 33.859 C 241.890 38.432,253.819 52.119,257.773 59.375 C 258.062 59.905,258.609 60.840,258.989 61.453 C 259.369 62.066,260.274 63.701,261.001 65.086 C 261.727 66.471,262.439 67.820,262.582 68.083 C 263.315 69.429,265.054 73.356,265.054 73.665 C 265.054 73.859,265.315 74.534,265.635 75.163 C 265.954 75.793,266.564 77.395,266.992 78.723 C 267.419 80.050,267.920 81.480,268.104 81.899 C 268.289 82.318,268.440 82.831,268.440 83.038 C 268.440 83.246,268.655 83.962,268.918 84.630 C 269.181 85.297,269.514 86.576,269.657 87.471 C 269.800 88.366,270.005 89.212,270.112 89.350 C 270.219 89.488,270.374 89.927,270.457 90.326 C 270.540 90.726,270.761 91.761,270.950 92.626 C 271.650 95.840,272.817 104.074,272.929 106.590 C 273.358 116.205,273.170 121.760,272.178 128.779 C 271.497 133.602,270.015 140.340,269.227 142.201 C 268.973 142.799,268.617 143.833,268.436 144.498 C 268.255 145.163,267.575 147.068,266.925 148.730 C 266.275 150.393,265.534 152.297,265.278 152.963 C 265.022 153.628,264.629 154.308,264.404 154.474 C 263.973 154.792,264.255 154.897,264.720 154.591 C 265.138 154.317,266.187 152.109,267.108 149.567 C 267.566 148.300,268.098 146.913,268.290 146.485 C 268.818 145.309,269.234 143.927,270.524 139.057 C 273.651 127.254,274.486 112.460,272.674 100.967 C 272.485 99.770,271.997 96.669,271.588 94.075 C 271.180 91.481,270.752 89.087,270.638 88.755 C 270.523 88.422,270.239 87.443,270.006 86.578 C 266.950 75.226,262.338 65.139,255.411 54.659 C 249.519 45.744,239.524 35.561,230.829 29.614 C 229.901 28.979,228.347 27.905,227.376 27.228 C 226.405 26.551,225.208 25.769,224.716 25.489 C 219.678 22.624,218.048 21.742,216.919 21.269 C 216.193 20.965,215.471 20.619,215.315 20.501 C 215.159 20.383,214.506 20.086,213.864 19.840 C 213.222 19.595,211.792 19.003,210.687 18.526 C 203.356 15.360,192.768 12.624,182.830 11.328 C 179.049 10.835,160.728 10.337,160.339 10.717 M158.404 30.713 C 157.406 30.822,155.556 31.082,154.293 31.292 C 153.029 31.501,151.496 31.674,150.887 31.676 C 150.277 31.679,149.698 31.761,149.601 31.858 C 149.424 32.035,148.566 32.252,144.619 33.119 C 142.537 33.576,141.219 34.010,136.638 35.748 C 132.298 37.395,130.307 38.232,129.625 38.695 C 129.426 38.830,128.773 39.167,128.174 39.443 C 127.576 39.718,126.651 40.200,126.119 40.513 C 125.061 41.134,124.555 41.426,122.724 42.472 C 122.055 42.855,121.239 43.363,120.911 43.602 C 120.583 43.841,119.770 44.381,119.105 44.802 C 118.440 45.224,117.842 45.632,117.775 45.710 C 117.709 45.788,117.273 46.112,116.808 46.429 C 116.342 46.747,115.254 47.615,114.389 48.358 C 113.525 49.102,112.273 50.140,111.608 50.666 C 109.010 52.721,103.374 58.716,101.260 61.674 C 100.889 62.193,100.148 63.059,99.613 63.599 C 99.078 64.139,98.480 64.933,98.283 65.362 C 98.086 65.791,97.600 66.578,97.202 67.110 C 96.804 67.642,96.384 68.299,96.270 68.569 C 96.155 68.839,95.666 69.578,95.183 70.211 C 94.700 70.844,94.128 71.820,93.911 72.380 C 93.694 72.940,93.384 73.561,93.223 73.761 C 92.544 74.602,89.531 80.896,88.420 83.797 C 88.063 84.728,87.666 85.679,87.537 85.910 C 87.409 86.141,87.304 86.482,87.304 86.669 C 87.304 86.856,87.088 87.483,86.825 88.063 C 86.562 88.643,86.344 89.409,86.341 89.765 C 86.339 90.121,86.173 90.576,85.975 90.774 C 85.776 90.973,85.436 91.933,85.219 92.908 C 85.003 93.882,84.729 94.897,84.611 95.163 C 84.344 95.767,83.476 99.552,83.197 101.330 C 83.082 102.062,82.886 103.174,82.760 103.801 C 82.635 104.429,82.581 104.991,82.641 105.051 C 82.701 105.111,82.581 106.176,82.374 107.417 C 81.595 112.095,81.709 123.990,82.585 129.563 C 83.224 133.629,83.937 137.465,84.147 137.969 C 84.257 138.235,84.528 139.160,84.748 140.024 C 84.968 140.889,85.315 142.086,85.519 142.684 C 85.724 143.283,85.999 144.305,86.131 144.956 C 86.263 145.607,86.513 146.369,86.688 146.649 C 86.862 146.929,87.354 148.192,87.780 149.456 C 88.206 150.719,88.689 151.971,88.853 152.237 C 89.016 152.503,89.405 153.428,89.717 154.293 C 90.029 155.157,90.363 155.973,90.459 156.106 C 90.555 156.239,91.339 157.709,92.200 159.371 C 94.518 163.846,95.182 165.021,96.378 166.768 C 96.973 167.638,97.461 168.416,97.461 168.496 C 97.461 168.577,97.953 169.305,98.555 170.114 C 99.991 172.044,100.846 173.364,100.846 173.650 C 100.846 173.942,101.258 173.953,101.435 173.665 C 101.557 173.468,101.123 172.792,98.715 169.427 C 96.286 166.035,89.964 154.385,89.964 153.302 C 89.964 153.113,89.680 152.426,89.333 151.774 C 88.722 150.626,88.378 149.751,87.136 146.191 C 83.082 134.568,81.436 120.318,82.806 108.706 C 83.340 104.175,83.917 100.350,84.155 99.758 C 84.262 99.492,84.584 98.186,84.872 96.856 C 86.556 89.066,91.356 77.414,95.601 70.814 C 96.056 70.107,96.633 69.179,96.884 68.751 C 97.550 67.615,100.182 63.791,100.605 63.344 C 100.804 63.133,101.566 62.215,102.297 61.303 C 104.263 58.854,108.305 54.508,110.233 52.770 C 111.163 51.932,112.247 50.953,112.642 50.593 C 113.927 49.425,116.614 47.300,117.901 46.433 C 118.593 45.967,119.963 45.039,120.946 44.370 C 121.929 43.701,123.331 42.841,124.063 42.458 C 124.794 42.075,125.665 41.580,125.998 41.357 C 126.844 40.791,131.796 38.315,132.527 38.091 C 132.860 37.990,133.894 37.561,134.825 37.139 C 138.189 35.611,142.520 34.258,147.642 33.135 C 148.972 32.843,150.397 32.503,150.809 32.378 C 157.116 30.470,173.523 30.590,183.676 32.618 C 185.766 33.036,187.408 33.445,193.470 35.060 C 194.069 35.219,194.776 35.443,195.042 35.557 C 196.216 36.060,198.772 37.069,199.898 37.473 C 201.055 37.888,202.312 38.450,206.046 40.222 C 207.480 40.903,211.046 42.883,212.439 43.773 C 212.752 43.972,213.590 44.497,214.303 44.938 C 218.279 47.402,222.512 50.740,226.930 54.896 C 228.637 56.501,234.031 62.635,234.668 63.693 C 234.918 64.109,235.327 64.644,235.578 64.882 C 235.828 65.120,236.720 66.372,237.560 67.663 C 238.399 68.955,239.545 70.719,240.107 71.584 C 243.387 76.636,247.795 87.128,249.561 94.083 C 249.847 95.209,250.248 96.784,250.453 97.582 C 250.839 99.086,251.277 101.497,251.881 105.441 C 253.393 115.308,252.212 128.934,248.988 138.830 C 246.808 145.522,242.373 154.550,239.907 157.316 C 239.670 157.582,239.307 158.126,239.101 158.525 C 238.895 158.924,238.468 159.522,238.153 159.855 C 237.303 160.753,237.149 161.306,237.749 161.306 C 238.038 161.306,238.173 161.199,238.077 161.044 C 237.988 160.901,238.182 160.493,238.508 160.138 C 238.834 159.783,239.360 159.057,239.676 158.525 C 239.993 157.993,240.636 157.047,241.106 156.422 C 241.575 155.798,242.177 154.873,242.443 154.368 C 242.709 153.862,243.318 152.794,243.796 151.996 C 247.036 146.587,250.350 137.436,251.766 129.988 C 253.318 121.823,253.343 112.423,251.837 103.023 C 251.635 101.759,251.382 100.018,251.275 99.154 C 251.168 98.289,250.960 97.276,250.813 96.902 C 250.666 96.529,250.506 95.693,250.458 95.045 C 250.410 94.397,250.205 93.701,250.003 93.499 C 249.801 93.297,249.559 92.620,249.465 91.996 C 249.371 91.371,249.208 90.686,249.103 90.472 C 248.997 90.259,248.781 89.649,248.622 89.117 C 247.946 86.853,245.692 81.156,245.433 81.056 C 245.318 81.012,245.224 80.806,245.224 80.600 C 245.224 80.209,242.634 74.858,241.328 72.552 C 239.518 69.354,236.634 65.173,234.237 62.273 C 233.908 61.874,233.100 60.895,232.443 60.097 C 228.812 55.684,220.107 47.754,217.206 46.214 C 216.854 46.027,216.511 45.809,216.445 45.730 C 216.378 45.650,215.834 45.269,215.236 44.883 C 214.637 44.497,213.875 44.000,213.543 43.779 C 213.210 43.558,212.775 43.301,212.576 43.208 C 212.376 43.115,211.723 42.719,211.125 42.328 C 210.526 41.936,209.057 41.113,207.860 40.498 C 206.663 39.882,205.580 39.279,205.453 39.158 C 205.327 39.036,205.084 38.936,204.913 38.936 C 204.743 38.936,203.540 38.438,202.241 37.829 C 199.119 36.365,199.429 36.487,195.283 35.085 C 193.288 34.410,191.429 33.857,191.152 33.857 C 190.875 33.857,190.569 33.777,190.471 33.680 C 190.374 33.582,189.730 33.380,189.040 33.231 C 188.351 33.082,186.753 32.719,185.490 32.425 C 178.374 30.768,165.392 29.947,158.404 30.713 M159.250 36.768 C 155.126 37.184,152.957 37.496,151.028 37.951 C 149.964 38.202,147.787 38.704,146.191 39.066 C 142.826 39.829,141.870 40.088,140.871 40.506 C 140.472 40.673,139.220 41.161,138.089 41.590 C 135.250 42.668,130.597 44.727,129.867 45.229 C 129.534 45.457,128.773 45.891,128.174 46.193 C 127.257 46.656,126.023 47.421,123.004 49.400 C 116.549 53.630,108.103 61.610,104.540 66.844 C 104.171 67.386,103.633 68.103,103.344 68.437 C 101.407 70.681,97.893 76.372,95.578 81.016 C 92.642 86.907,91.627 89.552,89.639 96.493 C 87.547 103.799,86.571 116.744,87.524 124.547 C 88.092 129.202,88.984 134.310,89.740 137.243 C 90.151 138.839,90.570 140.472,90.671 140.871 C 91.704 144.955,96.956 157.126,98.971 160.107 C 99.282 160.567,99.907 161.596,100.361 162.394 C 101.168 163.817,102.224 165.409,104.772 169.052 C 107.140 172.437,107.137 172.433,108.087 172.402 C 108.603 172.386,108.754 172.327,108.464 172.257 C 107.700 172.070,105.407 169.480,104.111 167.337 C 103.978 167.117,103.555 166.459,103.170 165.875 C 102.785 165.291,102.124 164.268,101.701 163.603 C 101.277 162.938,100.723 162.068,100.468 161.669 C 99.595 160.299,99.418 159.964,97.005 155.139 C 95.675 152.479,94.511 149.976,94.419 149.577 C 94.326 149.178,93.950 148.198,93.583 147.400 C 93.216 146.602,92.786 145.469,92.629 144.883 C 92.471 144.296,92.196 143.589,92.018 143.311 C 91.839 143.033,91.616 142.370,91.522 141.838 C 91.428 141.306,91.267 140.762,91.165 140.629 C 91.062 140.496,90.792 139.462,90.565 138.331 C 90.339 137.201,90.065 136.058,89.956 135.792 C 89.847 135.526,89.699 135.036,89.627 134.704 C 89.555 134.371,89.335 133.392,89.137 132.527 C 87.042 123.379,87.405 105.758,89.849 97.944 C 90.036 97.346,90.370 96.203,90.592 95.405 C 91.494 92.158,93.537 86.472,94.561 84.357 C 94.959 83.536,95.284 82.735,95.284 82.577 C 95.284 82.419,95.485 82.031,95.729 81.713 C 95.974 81.396,96.600 80.320,97.119 79.323 C 98.539 76.597,99.936 74.187,100.559 73.387 C 101.409 72.296,102.225 71.075,102.776 70.073 C 103.050 69.574,103.384 69.166,103.518 69.166 C 103.651 69.166,103.854 68.919,103.969 68.617 C 104.084 68.316,105.001 67.091,106.009 65.897 C 107.016 64.702,108.089 63.420,108.394 63.049 C 110.783 60.136,117.607 53.930,120.815 51.753 C 121.305 51.421,121.969 50.904,122.291 50.605 C 122.613 50.305,122.945 50.060,123.029 50.060 C 123.114 50.060,124.061 49.473,125.134 48.755 C 126.208 48.037,127.739 47.103,128.537 46.680 C 129.335 46.257,130.151 45.819,130.351 45.706 C 131.293 45.171,137.196 42.526,138.767 41.934 C 139.738 41.568,140.588 41.179,140.655 41.069 C 140.723 40.960,141.056 40.871,141.397 40.871 C 141.737 40.871,142.574 40.696,143.257 40.482 C 145.441 39.798,145.973 39.661,146.450 39.661 C 146.707 39.661,147.489 39.444,148.189 39.178 C 148.889 38.912,149.827 38.694,150.274 38.694 C 150.722 38.694,151.564 38.524,152.146 38.317 C 152.769 38.095,154.747 37.846,156.953 37.712 C 159.015 37.587,161.495 37.375,162.465 37.243 C 164.613 36.949,167.705 36.958,170.617 37.266 C 171.814 37.393,173.555 37.554,174.486 37.624 C 177.122 37.821,181.605 38.629,186.699 39.825 C 189.253 40.424,195.869 42.672,197.944 43.645 C 201.371 45.252,203.112 46.115,205.135 47.212 C 207.826 48.671,211.256 50.719,211.682 51.120 C 211.841 51.269,212.461 51.709,213.059 52.097 C 217.146 54.746,223.912 61.039,227.772 65.780 C 229.821 68.297,229.972 68.493,230.301 69.077 C 230.461 69.361,231.321 70.686,232.212 72.023 C 234.224 75.042,237.969 82.369,237.969 83.286 C 237.969 83.438,238.189 83.973,238.458 84.475 C 238.727 84.977,239.095 85.955,239.276 86.648 C 239.456 87.341,239.819 88.670,240.082 89.601 C 240.344 90.532,240.677 91.838,240.822 92.503 C 240.966 93.168,241.263 94.462,241.481 95.379 C 241.699 96.296,241.919 97.819,241.969 98.765 C 242.019 99.710,242.185 102.022,242.339 103.902 C 242.626 107.394,242.589 108.284,242.072 110.388 L 241.778 111.586 241.208 109.663 C 240.894 108.605,240.460 107.031,240.244 106.167 C 239.639 103.755,239.120 101.972,238.906 101.572 C 238.799 101.372,238.482 100.393,238.202 99.395 C 237.345 96.343,237.072 95.483,236.280 93.349 C 235.861 92.219,235.431 91.022,235.324 90.689 C 235.110 90.019,232.823 85.156,231.571 82.709 C 230.075 79.783,229.606 78.964,228.405 77.175 C 227.746 76.193,227.098 75.215,226.965 75.000 C 226.570 74.364,225.619 73.137,223.474 70.496 C 220.498 66.830,215.121 61.928,211.608 59.677 C 210.877 59.208,210.071 58.594,209.817 58.312 C 209.564 58.030,209.276 57.799,209.177 57.799 C 209.078 57.799,208.273 57.359,207.388 56.821 C 206.503 56.284,204.941 55.407,203.917 54.873 C 202.893 54.340,201.892 53.809,201.693 53.693 C 200.826 53.191,195.854 51.022,194.196 50.424 C 193.198 50.064,192.180 49.663,191.933 49.534 C 191.438 49.274,189.450 48.709,185.327 47.654 C 175.653 45.181,163.577 45.135,154.414 47.538 C 152.551 48.026,150.593 48.534,150.060 48.666 C 149.187 48.883,147.517 49.540,146.546 50.047 C 146.342 50.154,145.798 50.323,145.337 50.423 C 144.876 50.523,144.117 50.808,143.652 51.055 C 143.186 51.303,141.663 52.046,140.266 52.706 C 137.353 54.082,136.407 54.626,133.713 56.470 C 132.646 57.201,131.684 57.799,131.575 57.799 C 131.466 57.799,131.236 57.969,131.064 58.176 C 130.651 58.674,127.055 61.446,126.057 62.035 C 125.625 62.290,125.272 62.586,125.272 62.692 C 125.272 62.799,124.485 63.619,123.522 64.515 C 121.293 66.589,120.847 67.048,119.226 68.930 C 118.495 69.780,117.651 70.730,117.352 71.041 C 117.053 71.352,116.808 71.697,116.808 71.807 C 116.808 71.918,116.643 72.145,116.442 72.312 C 116.092 72.603,114.086 75.443,113.504 76.474 C 113.350 76.746,113.130 77.037,113.015 77.119 C 112.900 77.200,112.595 77.594,112.337 77.993 C 111.844 78.755,111.710 78.996,110.035 82.104 C 109.462 83.168,108.807 84.311,108.579 84.643 C 108.351 84.976,108.084 85.520,107.985 85.852 C 107.886 86.185,107.450 87.219,107.015 88.150 C 106.581 89.081,106.146 90.208,106.050 90.655 C 105.954 91.102,105.614 92.058,105.295 92.778 C 104.977 93.499,104.716 94.297,104.716 94.551 C 104.716 94.806,104.607 95.081,104.474 95.163 C 104.341 95.245,104.232 95.575,104.232 95.895 C 104.232 96.215,104.081 96.834,103.897 97.271 C 103.016 99.355,101.804 107.860,101.491 114.148 C 101.425 115.477,101.561 117.752,102.036 123.216 C 102.468 128.195,104.633 136.640,106.626 141.112 C 106.863 141.644,107.307 142.678,107.612 143.410 C 110.976 151.462,117.159 160.709,123.881 167.740 C 124.912 168.819,125.756 169.825,125.756 169.977 C 125.756 170.129,125.977 170.254,126.248 170.254 C 126.905 170.254,126.588 169.655,125.339 168.541 C 124.830 168.087,123.609 166.790,122.628 165.659 C 121.646 164.528,120.697 163.440,120.518 163.241 C 119.311 161.895,115.328 156.567,114.491 155.178 C 114.102 154.534,113.608 153.718,113.393 153.364 C 111.154 149.689,109.165 145.841,107.748 142.443 C 107.387 141.578,106.949 140.544,106.775 140.145 C 106.403 139.295,105.512 136.531,104.512 133.132 C 103.791 130.678,103.255 128.069,102.797 124.788 C 102.658 123.791,102.434 122.192,102.300 121.235 C 101.936 118.644,102.000 111.240,102.412 108.326 C 103.435 101.078,103.811 99.343,105.438 94.365 C 107.583 87.802,111.145 80.448,114.131 76.421 C 114.377 76.088,115.198 74.963,115.954 73.919 C 118.384 70.567,125.443 63.099,127.449 61.761 C 128.174 61.277,131.349 58.885,132.890 57.662 C 133.156 57.451,133.762 57.077,134.236 56.831 C 134.711 56.585,135.241 56.212,135.415 56.003 C 135.588 55.794,135.914 55.623,136.137 55.623 C 136.361 55.623,136.919 55.339,137.377 54.992 C 137.836 54.645,139.244 53.873,140.508 53.276 C 141.771 52.678,143.241 51.977,143.773 51.716 C 151.515 47.930,164.371 45.657,173.781 46.411 C 182.006 47.070,186.058 48.031,196.003 51.678 C 196.937 52.020,200.675 53.859,204.354 55.787 C 206.668 56.999,212.296 60.692,214.027 62.132 C 214.758 62.741,215.738 63.559,216.203 63.949 C 217.662 65.173,223.300 70.961,224.126 72.084 C 226.664 75.535,228.244 77.733,228.763 78.534 C 229.779 80.104,233.495 87.583,234.201 89.480 C 234.572 90.478,235.023 91.574,235.201 91.916 C 235.816 93.091,238.722 102.424,239.902 107.013 C 240.552 109.541,241.246 112.044,241.444 112.576 L 241.804 113.543 241.821 112.588 C 241.840 111.502,242.232 111.665,242.374 112.817 C 242.597 114.622,242.856 108.262,242.737 103.889 C 242.613 99.303,241.936 94.022,241.123 91.294 C 241.004 90.895,240.575 89.435,240.169 88.050 C 238.672 82.939,235.939 76.741,233.583 73.112 C 232.843 71.973,232.287 71.083,231.527 69.821 C 229.122 65.828,219.913 56.273,215.261 52.945 C 198.333 40.833,177.787 34.899,159.250 36.768 M33.535 148.650 C 33.311 148.874,33.332 149.698,33.562 149.698 C 33.875 149.698,34.825 148.960,34.825 148.717 C 34.825 148.458,33.781 148.404,33.535 148.650 M147.124 184.256 C 147.115 184.469,147.024 184.861,146.922 185.127 C 146.760 185.550,146.787 185.543,147.137 185.074 L 147.539 184.536 148.800 185.039 C 151.535 186.131,152.822 186.556,157.437 187.891 C 158.833 188.295,160.149 188.726,160.360 188.849 C 160.801 189.106,161.522 188.796,161.096 188.533 C 160.953 188.444,159.989 188.151,158.955 187.882 C 155.940 187.098,151.578 185.746,151.289 185.506 C 150.553 184.895,147.141 183.871,147.124 184.256 M109.881 184.756 C 110.795 184.925,111.282 185.205,112.077 186.017 C 115.174 189.182,122.481 195.142,126.029 197.398 C 126.778 197.875,127.567 198.516,127.783 198.823 L 128.174 199.382 128.174 198.855 C 128.174 198.456,127.578 197.926,125.734 196.685 C 121.409 193.774,116.181 189.475,112.616 185.898 C 111.537 184.814,111.344 184.718,110.077 184.632 L 108.706 184.539 109.881 184.756 M92.193 186.172 C 90.683 186.387,102.667 198.196,109.977 203.696 C 111.341 204.722,112.531 205.562,112.622 205.562 C 112.712 205.562,113.011 205.766,113.286 206.016 C 115.091 207.655,121.381 211.437,121.835 211.156 C 122.018 211.043,121.701 210.775,120.978 210.428 C 119.920 209.921,119.368 209.593,117.436 208.322 C 117.050 208.068,116.367 207.642,115.920 207.376 C 109.206 203.387,94.013 189.706,92.957 186.699 C 92.800 186.252,92.601 186.114,92.193 186.172 M122.854 187.776 C 122.854 187.988,125.582 190.097,125.701 189.978 C 125.912 189.767,125.270 189.158,124.038 188.399 C 123.386 187.999,122.854 187.718,122.854 187.776 " stroke="none" fill="#eede97" fill-rule="evenodd"></path><path id="path4" d="M242.019 112.293 C 241.730 113.000,241.790 114.534,242.095 114.229 C 242.237 114.087,242.318 113.494,242.277 112.911 C 242.223 112.158,242.148 111.979,242.019 112.293 M317.248 147.866 C 316.560 148.067,317.844 148.127,322.931 148.132 C 352.912 148.159,369.425 157.205,367.286 172.430 L 367.099 173.761 367.458 172.797 C 368.603 169.727,367.789 164.634,365.635 161.391 C 364.731 160.029,361.646 156.711,361.284 156.711 C 361.183 156.711,360.770 156.432,360.365 156.091 C 358.656 154.654,353.678 152.351,349.879 151.242 C 349.247 151.058,348.159 150.740,347.461 150.535 C 345.949 150.093,343.168 149.514,340.992 149.189 C 340.127 149.060,338.386 148.795,337.122 148.601 C 332.730 147.924,318.809 147.409,317.248 147.866 M310.399 148.038 C 309.468 148.136,306.856 148.339,304.595 148.490 C 300.634 148.753,298.793 148.938,295.163 149.434 C 294.232 149.562,292.414 149.776,291.122 149.911 C 288.924 150.140,285.623 150.636,282.830 151.156 C 282.164 151.280,280.532 151.558,279.202 151.772 C 273.494 152.694,264.571 154.531,264.571 154.785 C 264.571 154.955,266.492 154.602,271.342 153.539 C 272.606 153.262,274.510 152.890,275.574 152.713 C 276.638 152.536,278.108 152.280,278.839 152.146 C 282.090 151.549,284.436 151.173,286.457 150.923 C 288.665 150.651,291.083 150.324,293.712 149.942 C 298.414 149.258,302.667 148.859,309.311 148.479 C 313.347 148.249,316.205 147.806,313.422 147.842 C 312.690 147.851,311.330 147.940,310.399 148.038 M235.913 161.784 C 235.248 162.021,234.051 162.402,233.253 162.632 C 227.687 164.233,209.776 169.936,208.585 170.485 C 208.319 170.608,207.122 171.037,205.925 171.438 C 204.728 171.840,202.660 172.561,201.330 173.040 C 200.000 173.519,198.150 174.176,197.219 174.500 C 196.288 174.824,195.308 175.189,195.042 175.310 C 194.776 175.432,193.525 175.913,192.261 176.378 C 190.998 176.844,187.950 178.008,185.490 178.965 C 183.029 179.922,180.363 180.946,179.565 181.241 C 178.767 181.536,177.733 181.948,177.267 182.157 C 176.802 182.366,174.773 183.200,172.758 184.011 C 170.743 184.821,167.696 186.087,165.987 186.825 C 162.477 188.338,162.184 188.463,161.214 188.854 C 160.831 189.009,160.570 189.187,160.633 189.250 C 160.696 189.313,162.152 188.777,163.868 188.058 C 165.585 187.340,167.969 186.347,169.166 185.853 C 170.363 185.359,171.669 184.814,172.068 184.642 C 176.247 182.845,192.542 176.528,195.526 175.549 C 196.058 175.375,196.612 175.146,196.758 175.042 C 196.903 174.938,198.046 174.517,199.297 174.105 C 200.548 173.694,201.898 173.220,202.297 173.051 C 202.696 172.883,203.730 172.509,204.595 172.221 C 205.459 171.932,208.670 170.846,211.729 169.806 C 214.788 168.766,218.761 167.448,220.556 166.877 C 222.352 166.307,224.583 165.598,225.514 165.302 C 226.445 165.007,227.696 164.627,228.295 164.458 C 228.894 164.290,229.655 164.061,229.988 163.951 C 230.538 163.768,232.427 163.213,235.308 162.388 C 235.907 162.216,236.832 161.908,237.364 161.702 C 238.782 161.153,237.481 161.227,235.913 161.784 M297.148 167.255 C 297.120 167.279,294.813 167.374,292.021 167.468 C 289.228 167.561,286.889 167.670,286.821 167.710 C 286.754 167.750,285.121 167.909,283.192 168.064 C 280.205 168.305,274.035 168.992,271.100 169.411 C 266.348 170.090,263.504 170.524,262.394 170.741 C 261.663 170.884,259.595 171.265,257.799 171.587 C 254.924 172.103,247.594 173.581,245.224 174.123 C 244.758 174.229,243.779 174.437,243.047 174.584 C 240.163 175.165,230.615 177.597,230.877 177.684 C 231.030 177.735,232.769 177.385,234.743 176.906 C 236.717 176.427,239.039 175.871,239.903 175.670 C 240.768 175.468,242.128 175.138,242.926 174.937 C 243.724 174.735,245.193 174.412,246.191 174.220 C 247.189 174.028,248.549 173.757,249.214 173.619 C 249.879 173.480,250.967 173.257,251.632 173.122 C 252.297 172.987,253.176 172.777,253.584 172.654 C 253.993 172.531,254.563 172.430,254.850 172.430 C 255.138 172.430,255.838 172.324,256.405 172.193 C 257.674 171.902,262.165 171.101,264.450 170.759 C 265.381 170.619,266.524 170.448,266.989 170.379 C 267.455 170.309,268.597 170.135,269.528 169.992 C 273.146 169.435,278.550 168.812,282.950 168.443 C 283.815 168.371,285.067 168.251,285.732 168.178 C 293.311 167.342,308.164 167.613,314.148 168.696 C 329.121 171.405,335.030 176.644,333.500 185.852 C 332.143 194.017,320.406 207.632,303.998 220.073 C 303.560 220.405,302.807 221.009,302.326 221.414 C 301.485 222.121,297.465 225.126,296.356 225.877 C 296.060 226.076,294.747 227.011,293.436 227.955 C 292.125 228.898,289.719 230.572,288.089 231.675 C 284.929 233.814,284.061 234.863,286.186 233.975 C 287.224 233.541,287.329 233.308,286.397 233.505 C 285.793 233.633,285.777 233.619,286.215 233.355 C 286.481 233.195,287.323 232.644,288.087 232.131 C 288.850 231.617,289.531 231.197,289.600 231.197 C 289.670 231.197,290.634 230.517,291.744 229.686 C 292.853 228.854,295.695 226.759,298.058 225.030 C 300.422 223.301,303.173 221.233,304.171 220.435 C 305.170 219.637,306.620 218.495,307.394 217.896 C 309.887 215.967,313.458 212.837,317.015 209.461 C 318.925 207.649,320.833 205.840,321.257 205.441 C 322.062 204.683,325.918 200.265,327.590 198.186 C 328.518 197.033,330.175 194.589,330.377 194.075 C 330.555 193.622,332.377 190.448,332.529 190.326 C 332.740 190.158,333.475 187.631,333.900 185.611 C 334.968 180.534,332.382 175.120,327.781 172.805 C 327.266 172.546,326.681 172.208,326.481 172.055 C 325.863 171.582,321.789 170.035,320.413 169.752 C 319.694 169.604,318.922 169.388,318.699 169.272 C 318.142 168.984,313.003 168.143,310.641 167.954 C 309.577 167.868,308.380 167.700,307.981 167.580 C 307.396 167.404,297.325 167.102,297.148 167.255 M125.823 170.402 C 125.904 170.483,127.691 170.649,129.793 170.770 C 131.895 170.891,134.105 171.047,134.704 171.116 C 135.533 171.212,135.694 171.180,135.381 170.985 C 134.690 170.552,125.407 169.986,125.823 170.402 M117.476 171.150 C 117.776 171.208,118.212 171.206,118.443 171.146 C 118.674 171.085,118.428 171.038,117.896 171.040 C 117.364 171.043,117.175 171.093,117.476 171.150 M137.825 171.829 C 144.447 173.697,147.197 176.998,146.888 182.709 C 146.816 184.039,146.848 185.001,146.958 184.848 C 147.566 184.000,147.173 179.103,146.365 177.461 C 144.878 174.436,139.630 171.151,136.426 171.239 C 136.077 171.248,136.707 171.514,137.825 171.829 M106.651 172.672 C 106.451 172.801,105.990 172.908,105.626 172.910 C 105.012 172.914,104.318 173.051,101.625 173.699 C 99.494 174.212,100.874 174.099,103.768 173.524 C 107.370 172.807,108.544 172.481,107.618 172.455 C 107.285 172.446,106.850 172.543,106.651 172.672 M366.709 173.823 C 367.038 175.380,363.206 182.477,360.084 186.094 C 355.849 191.000,351.706 195.030,347.279 198.546 C 345.883 199.655,344.686 200.627,344.619 200.706 C 344.330 201.048,342.516 202.363,339.755 204.232 C 338.772 204.897,337.914 205.504,337.848 205.580 C 337.572 205.897,334.712 207.739,334.495 207.739 C 334.366 207.739,334.224 207.820,334.180 207.920 C 334.035 208.247,331.197 210.157,328.388 211.818 C 327.406 212.399,326.221 213.115,325.756 213.409 C 324.487 214.211,322.161 215.583,320.798 216.334 C 320.133 216.701,317.848 217.980,315.719 219.177 C 312.100 221.213,300.793 226.970,295.889 229.273 C 292.166 231.022,289.876 232.062,288.996 232.405 C 288.119 232.746,287.066 233.374,287.369 233.374 C 287.464 233.374,288.658 232.876,290.023 232.268 C 291.387 231.660,293.047 230.928,293.712 230.641 C 295.155 230.017,302.941 226.217,307.013 224.148 C 313.525 220.839,317.440 218.714,321.837 216.103 C 323.871 214.894,326.265 213.481,327.157 212.962 C 332.042 210.120,337.241 206.667,341.929 203.152 C 343.443 202.017,344.932 200.920,345.238 200.715 C 345.545 200.509,346.374 199.843,347.082 199.234 C 347.789 198.626,348.958 197.626,349.679 197.012 C 354.298 193.082,359.655 187.586,361.495 184.889 C 361.857 184.359,362.328 183.729,362.542 183.489 C 364.322 181.494,367.407 174.564,366.884 173.737 C 366.612 173.307,366.601 173.313,366.709 173.823 M228.900 178.018 C 228.501 178.137,226.542 178.675,224.547 179.213 C 222.551 179.751,220.048 180.448,218.984 180.763 C 217.920 181.078,215.852 181.686,214.389 182.115 C 209.966 183.411,208.574 183.874,208.836 183.961 C 208.973 184.007,210.007 183.764,211.133 183.420 C 212.259 183.077,213.888 182.597,214.752 182.353 C 215.617 182.109,217.304 181.625,218.501 181.279 C 219.698 180.932,221.602 180.381,222.733 180.053 C 223.863 179.726,225.822 179.193,227.086 178.869 C 229.712 178.195,230.886 177.776,230.109 177.791 C 229.843 177.796,229.299 177.898,228.900 178.018 M84.315 178.629 C 83.670 178.827,83.200 179.048,83.272 179.120 C 83.408 179.257,85.852 178.514,85.852 178.336 C 85.852 178.185,85.609 178.232,84.315 178.629 M79.852 180.093 C 79.278 180.296,78.852 180.504,78.904 180.556 C 78.956 180.609,79.589 180.442,80.310 180.186 C 81.030 179.930,81.457 179.722,81.258 179.722 C 81.058 179.723,80.425 179.890,79.852 180.093 M75.091 181.849 C 73.816 182.452,74.061 182.464,75.574 181.873 C 76.239 181.614,76.620 181.399,76.421 181.396 C 76.221 181.393,75.623 181.597,75.091 181.849 M72.068 183.003 C 71.868 183.077,71.126 183.351,70.419 183.612 C 69.711 183.873,69.171 184.125,69.218 184.172 C 69.307 184.261,72.585 183.118,72.770 182.934 C 72.908 182.796,72.522 182.834,72.068 183.003 M207.255 184.275 C 206.923 184.383,204.746 185.087,202.418 185.839 C 200.091 186.591,197.969 187.302,197.703 187.419 C 197.437 187.537,196.784 187.758,196.252 187.912 C 195.719 188.066,194.577 188.447,193.712 188.760 C 192.848 189.072,190.617 189.872,188.755 190.536 C 181.847 193.001,178.902 194.164,179.502 194.189 C 179.600 194.193,181.124 193.663,182.888 193.012 C 184.651 192.361,186.366 191.748,186.699 191.650 C 187.031 191.553,187.739 191.279,188.271 191.043 C 188.803 190.807,190.054 190.341,191.052 190.007 C 192.050 189.673,195.260 188.592,198.186 187.605 C 201.112 186.618,204.318 185.560,205.310 185.255 C 207.364 184.621,208.758 184.053,208.222 184.067 C 208.023 184.073,207.588 184.166,207.255 184.275 M107.678 184.454 C 108.044 184.509,108.643 184.509,109.008 184.454 C 109.374 184.398,109.075 184.353,108.343 184.353 C 107.612 184.353,107.313 184.398,107.678 184.454 M66.626 185.156 C 65.828 185.497,64.226 186.141,63.066 186.586 C 59.945 187.783,50.811 192.499,47.476 194.636 C 46.919 194.992,45.940 195.598,45.300 195.982 C 33.391 203.125,28.854 211.750,34.261 216.968 C 35.409 218.076,39.903 220.677,40.390 220.515 C 40.526 220.469,39.639 219.948,38.418 219.357 C 31.752 216.128,30.379 211.444,34.446 205.804 C 37.389 201.723,44.263 196.501,52.600 192.014 C 56.662 189.828,61.241 187.650,65.054 186.092 C 67.954 184.907,68.727 184.538,68.319 184.535 C 68.186 184.535,67.424 184.814,66.626 185.156 M104.534 184.689 C 104.767 184.750,105.148 184.750,105.381 184.689 C 105.614 184.628,105.423 184.578,104.958 184.578 C 104.492 184.578,104.302 184.628,104.534 184.689 M112.092 184.778 C 121.223 185.924,125.782 188.280,127.853 192.926 C 128.421 194.199,128.463 194.521,128.356 196.735 C 128.291 198.065,128.320 198.827,128.419 198.428 C 130.075 191.801,125.273 186.715,115.738 184.998 C 114.285 184.736,112.543 184.539,111.868 184.559 L 110.641 184.596 112.092 184.778 M90.085 186.202 C 89.686 186.304,88.652 186.517,87.787 186.675 C 85.501 187.095,80.085 188.395,78.960 188.794 C 77.750 189.224,78.588 189.088,81.499 188.383 C 83.487 187.902,85.497 187.468,88.271 186.922 C 89.002 186.778,90.036 186.562,90.568 186.443 C 91.100 186.324,91.808 186.184,92.140 186.133 C 92.478 186.081,92.318 186.034,91.778 186.028 C 91.245 186.022,90.484 186.100,90.085 186.202 M75.333 189.711 C 68.579 191.606,61.018 194.523,54.293 197.829 C 36.976 206.340,33.185 214.377,43.899 219.866 C 46.031 220.959,50.007 222.383,50.250 222.141 C 50.317 222.073,50.220 221.969,50.035 221.909 C 39.900 218.600,36.612 215.092,38.984 210.115 C 41.267 205.325,48.986 200.055,61.306 194.877 C 64.459 193.551,72.361 190.820,74.839 190.199 C 76.563 189.767,78.279 189.123,77.630 189.152 C 77.430 189.161,76.397 189.413,75.333 189.711 M177.993 194.487 C 176.932 194.940,175.989 195.316,173.881 196.123 C 172.751 196.556,171.499 197.050,171.100 197.221 C 170.701 197.392,169.504 197.881,168.440 198.307 C 167.376 198.734,166.179 199.226,165.780 199.400 C 165.381 199.575,164.587 199.904,164.017 200.131 C 163.446 200.358,163.021 200.586,163.072 200.637 C 163.208 200.773,164.849 200.166,168.679 198.561 C 170.543 197.780,173.374 196.635,174.970 196.015 C 176.566 195.396,178.198 194.740,178.597 194.558 C 179.445 194.171,178.886 194.105,177.993 194.487 M140.512 197.749 C 140.505 198.222,140.840 198.285,141.478 197.932 C 141.809 197.749,141.971 197.597,141.838 197.594 C 141.705 197.591,141.436 197.690,141.240 197.814 C 141.005 197.963,140.821 197.941,140.699 197.750 C 140.558 197.528,140.514 197.527,140.512 197.749 M161.427 201.205 C 160.895 201.455,158.011 202.746,155.018 204.074 C 152.025 205.401,148.489 206.996,147.158 207.618 C 145.828 208.239,144.250 208.971,143.652 209.243 C 142.059 209.968,129.280 216.355,127.836 217.148 C 127.157 217.521,125.732 218.293,124.667 218.865 C 123.603 219.436,122.025 220.284,121.161 220.749 C 120.296 221.214,119.465 221.690,119.314 221.807 C 119.163 221.925,118.564 222.268,117.984 222.570 C 116.315 223.438,107.808 228.307,107.084 228.809 C 106.723 229.058,106.374 229.262,106.309 229.262 C 106.243 229.262,107.719 227.712,109.590 225.816 C 115.566 219.760,124.047 209.736,122.229 210.877 C 121.974 211.037,121.385 211.725,120.919 212.405 C 118.850 215.426,114.085 220.822,109.101 225.788 C 106.582 228.299,105.669 229.359,105.779 229.647 C 105.918 230.010,105.976 230.011,106.472 229.659 C 106.770 229.447,107.775 228.829,108.706 228.284 C 109.637 227.740,110.998 226.939,111.729 226.505 C 114.164 225.060,119.805 221.852,121.765 220.798 C 125.516 218.781,126.856 218.058,128.053 217.407 C 129.571 216.582,138.614 212.059,143.904 209.480 C 148.366 207.305,156.872 203.455,160.943 201.768 C 161.741 201.437,162.498 201.067,162.624 200.946 C 162.989 200.595,162.495 200.702,161.427 201.205 M41.112 220.773 C 42.039 221.436,50.287 223.474,51.874 223.433 C 52.273 223.423,51.838 223.267,50.907 223.086 C 47.991 222.521,46.144 222.078,43.894 221.406 C 40.848 220.497,40.668 220.456,41.112 220.773 M51.995 222.750 C 52.860 223.006,53.785 223.229,54.051 223.247 C 54.317 223.265,54.154 223.360,53.688 223.458 L 52.842 223.636 53.579 223.668 C 53.985 223.686,54.424 223.807,54.555 223.939 C 54.902 224.286,57.122 224.362,57.240 224.031 C 57.293 223.881,57.033 223.699,56.661 223.626 C 56.289 223.553,54.967 223.214,53.722 222.871 C 51.120 222.156,49.629 222.052,51.995 222.750 " stroke="none" fill="#99c0d1" fill-rule="evenodd"></path></g></svg>